<?xml version="1.0" encoding="utf-8"?>
<!-- Generator: Adobe Illustrator 23.0.4, SVG Export Plug-In . SVG Version: 6.00 Build 0)  -->
<svg version="1.1" id="Layer_1" xmlns="http://www.w3.org/2000/svg" xmlns:xlink="http://www.w3.org/1999/xlink" x="0px" y="0px"
	 viewBox="0 0 1500 320" style="enable-background:new 0 0 1500 320;" xml:space="preserve">
<style type="text/css">
	.st0{fill:#F2F7D8;}
</style>
<g>
	<path class="st0" d="M23.8,3h72.4v313.4H23.8V3z"/>
	<path class="st0" d="M180.3,3h112.3L528,263.8L526.6,3h69.1v313.4H482.9L248.9,57l1.4,259.4h-70V3z"/>
	<path class="st0" d="M679.3,3h319.5v55H751.2v80.8h234.9v54.5H751.2v123.1h-71.9V3z"/>
	<path class="st0" d="M1449.9,30.7c13.2,14.6,20.2,34.8,23,66.3c1.4,14.6,1.9,31.5,1.9,66.3c0,78.5-7.5,108.5-31.5,129.7
		c-17.4,15-40.9,22.6-80.4,24.9c-15,0.9-71.9,1.9-115.6,1.9c-95.9,0-121.7-2.8-148.5-17.4c-20.7-11.3-34.3-32.9-38.5-63.9
		c-2.8-20.7-3.8-37.6-3.8-88.8c0-73.3,7-102.4,29.6-122.2c16.9-15,39-22.1,79.4-25.4c16-1.4,63-2.3,120.3-2.3
		C1396.8-0.3,1426.4,5.3,1449.9,30.7z M1130.4,159.9c0,61.1,4.7,80.8,22.1,89.8c17.4,9.4,32.4,10.8,122.2,10.8
		c80.8,0,101-3.3,113.7-17.4c10.8-11.7,14.1-32,14.1-85.1c0-98.2-0.9-99.1-136.3-99.1C1132.3,58.9,1130.4,60.3,1130.4,159.9z"/>
</g>
</svg>
