<?xml version="1.0" encoding="utf-8"?>
<!-- Generator: Adobe Illustrator 23.0.4, SVG Export Plug-In . SVG Version: 6.00 Build 0)  -->
<svg version="1.1" id="Layer_1" xmlns="http://www.w3.org/2000/svg" xmlns:xlink="http://www.w3.org/1999/xlink" x="0px" y="0px"
	 viewBox="0 0 100 100" style="enable-background:new 0 0 100 100;" xml:space="preserve">
<style type="text/css">
	.st0{fill:#F2F7D8;}
	.st1{fill-rule:evenodd;clip-rule:evenodd;fill:#F2F7D8;}
</style>
<g>
	<g>
		<path class="st0" d="M83.1,83.1C74.3,92,62.5,96.9,50,96.9S25.7,92,16.9,83.1C8,74.3,3.1,62.5,3.1,50S8,25.7,16.9,16.9
			S37.5,3.1,50,3.1S74.3,8,83.1,16.9S96.9,37.5,96.9,50S92,74.3,83.1,83.1z M50,0C22.4,0,0,22.4,0,50s22.4,50,50,50s50-22.4,50-50
			S77.6,0,50,0z"/>
	</g>
	<g>
		<path class="st1" d="M50.3,40.6c-5.2,0-9.5,4.1-9.5,9.2s4.3,9.2,9.5,9.2c5.2,0,9.5-4.1,9.5-9.2S55.6,40.6,50.3,40.6z M68.6,46.2
			h-4.2c0.4,1.3,0.6,2.7,0.6,4.1c0,7.9-6.6,14.2-14.7,14.2c-8.1,0-14.7-6.4-14.7-14.3c0-1.4,0.2-2.8,0.6-4.1h-4.4v20c0,1,0.9,2,2,2
			h32.9c1,0,1.9-0.9,1.9-2V46.2z M61.1,31.6c-1.2,0-2.1,0.9-2.1,2.1v5.1c0,1.2,0.9,2,2.1,2h5.3c1.2,0,2.2-0.9,2.2-2v-5.1
			c0-1.2-1-2.1-2.2-2.1H61.1z M32.7,26.4h35.1c3.3,0,6,2.6,6,6v35.1c0,3.3-2.6,6.2-6,6.2H32.7c-3.3,0-6.1-2.8-6.1-6.2V32.3
			C26.6,29,29.4,26.4,32.7,26.4z"/>
	</g>
</g>
</svg>
