<?xml version="1.0" encoding="utf-8"?>
<!-- Generator: Adobe Illustrator 23.0.4, SVG Export Plug-In . SVG Version: 6.00 Build 0)  -->
<svg version="1.1" id="Layer_1" xmlns="http://www.w3.org/2000/svg" xmlns:xlink="http://www.w3.org/1999/xlink" x="0px" y="0px"
	 viewBox="0 0 1100 150" style="enable-background:new 0 0 1100 150;" xml:space="preserve">
<style type="text/css">
	.st0{fill:#F4F7DC;}
</style>
<g>
	<path class="st0" d="M39.2,1.3h34v119.7h107.6v27.6H39.2V1.3z"/>
	<path class="st0" d="M205,1.3h34v147.3h-34V1.3z"/>
	<path class="st0" d="M308.4,102.1v1.5c0,9.5,1.8,14.6,6,17c5.3,3.1,16.8,4.4,38.4,4.4c18.3,0,29.8-0.7,45.7-2.7
		c8.4-1.1,12.6-2.7,15.2-5.7c2.9-3.5,4.4-8,4.4-12.6c0-8.6-3.8-12.8-13.9-15c-6.2-1.3-6.4-1.3-46.6-1.5h-21.2
		c-31.2-0.2-43.3-2.7-51.5-10.2c-7.1-6.2-10.4-15.5-10.4-28.5c0-16.4,4-29.8,11-36C295.6,3.5,318.2,0,366.8,0
		c29.6,0,45.5,1.1,55.7,4.2c18.3,5.3,24.7,15.2,24.7,38v2.9H414c-0.2-8.6-2.4-13-7.1-15.2c-6.2-2.9-20.3-4.6-36.7-4.6
		c-27.8,0-47.3,1.8-53.9,5.1c-5.3,2.4-8,7.5-8,14.4c0,6.4,2,10.6,6.2,13c5.1,2.9,13.5,3.8,36.7,3.8h25c44.2,0,57.7,2.4,66.9,12.4
		c6.2,6.4,9.1,16.1,9.1,30.7c0,15.5-3.3,26.1-10.6,33.1c-9.7,9.3-28.7,12.4-78.4,12.4c-53,0-69.6-2.4-78.9-11.3
		c-6.6-6.4-9.5-15.2-9.5-29.2c0-1.3,0-4.6,0.2-7.5H308.4z"/>
	<path class="st0" d="M543.6,28.9h-69.4V1.3h172.5v27.6h-69.1v119.7h-34V28.9z"/>
	<path class="st0" d="M674.3,1.3h156.6v25.8h-123v34.9h117.1v23.2H707.8v37.5h124.4v25.8h-158V1.3z"/>
	<path class="st0" d="M865.5,1.3h52.8l110.7,122.6l-0.7-122.6h32.5v147.3h-53l-110-121.9l0.7,121.9h-32.9V1.3z"/>
</g>
</svg>
