<?xml version="1.0" encoding="utf-8"?>
<!-- Generator: Adobe Illustrator 23.0.4, SVG Export Plug-In . SVG Version: 6.00 Build 0)  -->
<svg version="1.1" id="Layer_1" xmlns="http://www.w3.org/2000/svg" xmlns:xlink="http://www.w3.org/1999/xlink" x="0px" y="0px"
	 viewBox="0 0 500 500" style="enable-background:new 0 0 500 500;" xml:space="preserve">
<style type="text/css">
	.st0{fill:#F2F7D8;}
</style>
<g>
	<g>
		<path class="st0" d="M283.3,350h18.8c6.6,0,11.9-6.3,11.9-14V164c0-7.7-5.3-14-11.9-14h-18.8c-6.6,0-11.9,6.3-11.9,14v172
			C271.3,343.7,276.7,350,283.3,350z M197.9,350h18.8c6.6,0,11.9-6.3,11.9-14V164c0-7.7-5.3-14-11.9-14h-18.8
			c-6.6,0-11.9,6.3-11.9,14v172C186,343.7,191.3,350,197.9,350z"/>
	</g>
</g>
</svg>
