<?xml version="1.0" encoding="utf-8"?>
<!-- Generator: Adobe Illustrator 23.0.4, SVG Export Plug-In . SVG Version: 6.00 Build 0)  -->
<svg version="1.1" id="Layer_1" xmlns="http://www.w3.org/2000/svg" xmlns:xlink="http://www.w3.org/1999/xlink" x="0px" y="0px"
	 viewBox="0 0 630 320" style="enable-background:new 0 0 630 320;" xml:space="preserve">
<style type="text/css">
	.st0{fill:#F2F7D8;}
</style>
<g>
	<g>
		<g>
			<path class="st0" d="M628.8,66h-6.8V34.7c0-15.4-12.4-27.9-27.7-27.9h-31V0h31c19,0,34.4,15.6,34.4,34.7V66z"/>
		</g>
		<g>
			<path class="st0" d="M594.4,320h-31v-6.8h31c15.3,0,27.7-12.5,27.7-27.9v-31.3h6.8v31.3C628.8,304.4,613.4,320,594.4,320z"/>
		</g>
		<g>
			<g>
				<path class="st0" d="M7.9,66H1.2V34.7C1.2,15.6,16.6,0,35.6,0h31v6.8h-31C20.3,6.8,7.9,19.3,7.9,34.7V66z"/>
			</g>
			<g>
				<path class="st0" d="M66.6,320h-31c-19,0-34.4-15.6-34.4-34.7v-31.3h6.8v31.3c0,15.4,12.4,27.9,27.7,27.9h31V320z"/>
			</g>
		</g>
	</g>
	<g>
		<path class="st0" d="M455.2,98.7c0,2.1,1.1,2.5,6.1,2.5c8.1,0,9.5,0,11-0.5c1.7-0.5,2.8-2.2,2.8-4.4c0-0.9-0.4-1.5-1.1-1.9
			c-1-0.4-2-0.5-7.9-0.5c-6,0-7.6,0.1-8.7,0.6C456.2,95.1,455.2,96.8,455.2,98.7z"/>
		<path class="st0" d="M533.3,82.2c-0.6-0.1-4.8-0.2-7.6-0.2c-4.9,0-6.1,0.1-7.3,0.6c-1.3,0.6-2.3,2.3-2.3,4.3
			c0,1.2,0.5,1.8,1.6,2.1c0.7,0.1,1.9,0.2,7.3,0.2c6.4,0,8-0.1,8.9-0.8c1-0.8,1.6-2.4,1.6-3.9C535.6,83.1,534.9,82.5,533.3,82.2z"/>
		<path class="st0" d="M117.4,83.8c-0.8-0.3-1.2-0.4-3.2-0.4H100L98.2,92h14.2c2.8,0,4-0.3,4.9-1.4c0.8-1,1.3-2.9,1.3-4.6
			C118.7,84.8,118.3,84.1,117.4,83.8z"/>
		<path class="st0" d="M578.4,32H52L33.1,50.6v82.1l18.6,18.6h526.5l18.6-18.6V50.6L578.4,32z M119.8,99.3c-2,0.4-3.8,0.5-7.5,0.5
			H96.6l-1.7,7.9h-9.7L92,75.6h24.6c6.2,0,7.7,0.2,9.5,1.2c1.9,1.1,2.9,2.9,2.9,5.4c0,2.5-0.9,6.9-2.1,10.2
			C125.6,96,123,98.6,119.8,99.3z M128.6,107.7l6.8-32.1h9.8l-6.8,32.1H128.6z M172.9,107.7l-14.1-24.2l-4.9,24.2h-9.4l6.8-32.1H167
			l14.3,24.4l4.9-24.4h9.3l-6.8,32.1H172.9z M238.3,107.7h-14.2l-11.9-12.3h-4.9l-2.7,12.3h-9.8l6.8-32.1h9.8l-2.6,12h5.2l15.8-12
			h13.4l-21.8,15.9L238.3,107.7z M287.3,96.5h-23.1l-2.4,11.2h-9.7l6.8-32.1H293l-1.6,7.3h-24.3l-1.4,6.4h23.2L287.3,96.5z
			 M344.9,107.7h-9.5l5.8-24.8l-19.5,24.8h-7.9l-8.7-24.8l-5,24.8h-9.4l6.8-32.1H313l7.2,21.3l16.2-21.3h15.4L344.9,107.7z
			 M389.9,107.7h-9.4l5.3-24.7l-13.4,8.1l-2.9-6.5l15.6-9.2h11.7L389.9,107.7z M440.1,101.1c-1.5,3.5-4.3,5.6-8,6.2
			c-2.7,0.5-6.3,0.6-13.4,0.6c-8.9,0-11.9-0.2-13.7-1c-2.4-1.1-3.4-2.9-3.4-5.9c0-2.5,0.8-7.4,2.1-12.7c1.9-7.6,4.1-10.6,8.9-11.9
			c2.7-0.8,7-1.1,14.1-1.1c8.3,0,12,0.4,14.3,1.4c2.3,1.1,3.2,2.8,3.2,6C444.1,87,441.9,96.9,440.1,101.1z M486.1,84.6h-8.9v-0.5
			c0-0.9-0.6-1.5-1.9-1.7c-0.7-0.2-3.6-0.3-6.8-0.3c-6.3,0-8.4,0.4-9.6,2c-0.8,1-1.5,3.5-2.2,7.1c1.5-2.1,2.8-2.9,5.4-3.4
			c1.3-0.2,2.7-0.3,6.7-0.3c7,0,10.8,0.3,12.5,0.9c2.3,0.9,3.1,2.1,3.1,4.6c0,3-1.3,8.1-2.7,10.3c-1.3,2.1-4,3.7-7,4
			c-2.2,0.2-7.6,0.5-11.5,0.5c-8.5,0-12.6-0.5-14.6-1.7c-1.8-1.1-2.7-2.8-2.7-5c0-1.6,1.2-8.3,2.4-13.1c1.8-7.4,3.1-9.3,7.2-11
			c2.7-1.1,7.4-1.6,13.7-1.6c3.1,0,10.2,0.3,11.8,0.6c4,0.5,5.4,1.9,5.4,5.1C486.5,82.2,486.4,82.9,486.1,84.6z M496.7,107.7h-9.6
			l1.9-9h9.5L496.7,107.7z M541,100.3c-1.4,3.8-4.4,6.3-8.4,6.9c-2.5,0.3-8,0.6-13.3,0.6c-7.7,0-11.6-0.4-13.4-1.3
			c-1.9-0.9-2.7-2.1-2.7-4.2c0-1.1,0.1-2,0.6-3.7h9c0,2.2,0.4,2.3,7.9,2.3c7.6,0,8.5-0.1,10.1-0.9c1.2-0.6,1.6-1.3,2.3-4.4
			c0.2-0.8,0.2-0.8,0.8-3.2c-2.3,2.7-3.7,3.1-13.8,3.1c-6.8,0-9.1-0.3-11.2-1.5c-1.5-0.9-2.4-2.5-2.4-4.8c0-1.3,0.4-3.8,1.1-5.9
			c1.3-4.1,3.1-6.1,6.8-7.1c2.2-0.6,6-0.9,12.4-0.9c6.3,0,10.5,0.2,12.8,0.7c3.2,0.6,5.2,2.8,5.2,6C544.8,85.3,542.7,95.8,541,100.3
			z"/>
		<path class="st0" d="M432.2,83.3c-1-0.3-3.9-0.5-7.5-0.5c-7.1,0-9.5,0.6-10.7,2.8c-1.1,1.9-2.7,8.6-2.7,11.1c0,3,1.6,3.6,9.9,3.6
			c7.8,0,9.9-0.7,11.1-3.8c0.8-2.3,2.1-8.5,2.1-10.3C434.4,84.7,433.7,83.8,432.2,83.3z"/>
	</g>
	<g>
		<rect x="115.4" y="247.9" class="st0" width="7.6" height="40.1"/>
		<rect x="134.5" y="247.9" class="st0" width="7.6" height="40.1"/>
		<rect x="153.6" y="207.8" class="st0" width="7.6" height="80.2"/>
		<rect x="268.2" y="230.7" class="st0" width="7.6" height="57.3"/>
		<rect x="39" y="230.7" class="st0" width="7.6" height="57.3"/>
		<rect x="172.7" y="247.9" class="st0" width="7.6" height="40.1"/>
		<rect x="191.8" y="247.9" class="st0" width="7.6" height="40.1"/>
		<rect x="210.9" y="247.9" class="st0" width="7.6" height="40.1"/>
		<rect x="58.1" y="247.9" class="st0" width="7.6" height="40.1"/>
		<rect x="77.2" y="247.9" class="st0" width="7.6" height="40.1"/>
		<rect x="96.3" y="247.9" class="st0" width="7.6" height="40.1"/>
		<rect x="230" y="247.9" class="st0" width="7.6" height="40.1"/>
		<rect x="249.1" y="247.9" class="st0" width="7.6" height="40.1"/>
		<rect x="342.7" y="247.9" class="st0" width="7.6" height="40.1"/>
		<rect x="361.9" y="247.9" class="st0" width="7.6" height="40.1"/>
		<rect x="381" y="207.8" class="st0" width="7.6" height="80.2"/>
		<rect x="495.6" y="230.7" class="st0" width="7.6" height="57.3"/>
		<rect x="400.1" y="247.9" class="st0" width="7.6" height="40.1"/>
		<rect x="419.2" y="247.9" class="st0" width="7.6" height="40.1"/>
		<rect x="438.3" y="247.9" class="st0" width="7.6" height="40.1"/>
		<rect x="285.4" y="247.9" class="st0" width="7.6" height="40.1"/>
		<rect x="304.5" y="247.9" class="st0" width="7.6" height="40.1"/>
		<rect x="323.6" y="247.9" class="st0" width="7.6" height="40.1"/>
		<rect x="457.4" y="247.9" class="st0" width="7.6" height="40.1"/>
		<rect x="476.5" y="247.9" class="st0" width="7.6" height="40.1"/>
		<rect x="570.1" y="247.9" class="st0" width="7.6" height="40.1"/>
		<rect x="589.2" y="247.9" class="st0" width="7.6" height="40.1"/>
		<rect x="512.8" y="247.9" class="st0" width="7.6" height="40.1"/>
		<rect x="531.9" y="247.9" class="st0" width="7.6" height="40.1"/>
		<rect x="551" y="247.9" class="st0" width="7.6" height="40.1"/>
	</g>
</g>
</svg>
