<?xml version="1.0" encoding="utf-8"?>
<!-- Generator: Adobe Illustrator 23.0.4, SVG Export Plug-In . SVG Version: 6.00 Build 0)  -->
<svg version="1.1" id="Layer_1" xmlns="http://www.w3.org/2000/svg" xmlns:xlink="http://www.w3.org/1999/xlink" x="0px" y="0px"
	 viewBox="0 0 500 500" style="enable-background:new 0 0 500 500;" xml:space="preserve">
<style type="text/css">
	.st0{fill:#F2F7D8;}
	.st1{fill-rule:evenodd;clip-rule:evenodd;fill:#F2F7D8;}
</style>
<g>
	<g>
		<g>
			<path class="st0" d="M408.4,408.4C366.1,450.7,309.8,474,250,474s-116.1-23.3-158.4-65.6S26,309.8,26,250S49.3,133.9,91.6,91.6
				S190.2,26,250,26s116.1,23.3,158.4,65.6S474,190.2,474,250S450.7,366.1,408.4,408.4z M250,11C118,11,11,118,11,250
				s107,239,239,239s239-107,239-239S382,11,250,11z"/>
		</g>
	</g>
	<g>
		<path class="st1" d="M214.5,347.7l137.1-88.4c7.2-4.6,7.2-13.9,0-18.5l-137.1-88.4c-8.9-5.7-21.5-0.3-21.5,9.2v176.8
			C192.9,347.9,205.6,353.4,214.5,347.7z"/>
	</g>
</g>
</svg>
