<?xml version="1.0" encoding="utf-8"?>
<!-- Generator: Adobe Illustrator 23.0.4, SVG Export Plug-In . SVG Version: 6.00 Build 0)  -->
<svg version="1.1" id="Layer_1" xmlns="http://www.w3.org/2000/svg" xmlns:xlink="http://www.w3.org/1999/xlink" x="0px" y="0px"
	 viewBox="0 0 840 150" style="enable-background:new 0 0 840 150;" xml:space="preserve">
<style type="text/css">
	.st0{fill:#F4F7DC;}
</style>
<g>
	<path class="st0" d="M35.7,102v1.5c0,9.5,1.8,14.5,5.9,17c5.3,3.1,16.7,4.4,38.3,4.4c18.3,0,29.7-0.7,45.6-2.6
		c8.4-1.1,12.6-2.6,15.2-5.7c2.9-3.5,4.4-7.9,4.4-12.6c0-8.6-3.7-12.8-13.9-15c-6.2-1.3-6.4-1.3-46.5-1.5H63.7
		c-31.1-0.2-43.2-2.6-51.3-10.1C5.3,71.1,2,61.9,2,48.9c0-16.3,4-29.7,11-35.9C22.9,3.7,45.4,0.2,93.8,0.2c29.5,0,45.4,1.1,55.5,4.2
		C167.6,9.7,174,19.6,174,42.3v2.9h-33c-0.2-8.6-2.4-13-7-15.2c-6.2-2.9-20.3-4.6-36.6-4.6c-27.8,0-47.1,1.8-53.7,5.1
		c-5.3,2.4-7.9,7.5-7.9,14.3c0,6.4,2,10.6,6.2,13c5.1,2.9,13.4,3.7,36.6,3.7h24.9c44.1,0,57.5,2.4,66.7,12.3c6.2,6.4,9,16.1,9,30.6
		c0,15.4-3.3,26-10.6,33c-9.7,9.2-28.6,12.3-78.2,12.3c-52.9,0-69.4-2.4-78.6-11.2c-6.6-6.4-9.5-15.2-9.5-29.1c0-1.3,0-4.6,0.2-7.5
		H35.7z"/>
	<path class="st0" d="M213.8,1.5h33.9v58.4h115.9V1.5h33.9v146.9h-33.9V87.2H247.7v61.2h-33.9V1.5z"/>
	<path class="st0" d="M617.9,14.5c6.2,6.8,9.5,16.3,10.8,31.1c0.7,6.8,0.9,14.8,0.9,31.1c0,36.8-3.5,50.9-14.8,60.8
		c-8.2,7-19.2,10.6-37.7,11.7c-7,0.4-33.7,0.9-54.2,0.9c-44.9,0-57.1-1.3-69.6-8.2c-9.7-5.3-16.1-15.4-18.1-30
		c-1.3-9.7-1.8-17.6-1.8-41.6c0-34.4,3.3-48,13.9-57.3c7.9-7,18.3-10.3,37.2-11.9C492.1,0.4,514.1,0,541,0
		C593,0,606.8,2.6,617.9,14.5z M468.1,75.1c0,28.6,2.2,37.9,10.4,42.1c8.1,4.4,15.2,5.1,57.3,5.1c37.9,0,47.4-1.5,53.3-8.2
		c5.1-5.5,6.6-15,6.6-39.9c0-46-0.4-46.5-63.9-46.5C469,27.8,468.1,28.4,468.1,75.1z"/>
	<path class="st0" d="M664.9,1.5h114.8c18.9,0,26.9,0.7,33.7,2.9C831.6,9.9,838,22.2,838,51.8c0,22.5-3.5,34.8-12.6,42.5
		c-7.7,6.8-18.9,9.2-41.9,9.2h-85v44.9h-33.7V1.5z M774.1,76.2c23.6,0,29.7-4.6,29.7-22.7c0-19.8-5.5-24.7-28.2-24.7h-77.1v47.3
		H774.1z"/>
</g>
</svg>
