<?xml version="1.0" encoding="utf-8"?>
<!-- Generator: Adobe Illustrator 23.0.4, SVG Export Plug-In . SVG Version: 6.00 Build 0)  -->
<svg version="1.1" id="Layer_1" xmlns="http://www.w3.org/2000/svg" xmlns:xlink="http://www.w3.org/1999/xlink" x="0px" y="0px"
	 viewBox="0 0 100 100" style="enable-background:new 0 0 100 100;" xml:space="preserve">
<style type="text/css">
	.st0{fill:#F2F7D8;}
</style>
<g>
	<g>
		<path class="st0" d="M83.1,83.1C74.3,92,62.5,96.9,50,96.9S25.7,92,16.9,83.1C8,74.3,3.1,62.5,3.1,50S8,25.7,16.9,16.9
			S37.5,3.1,50,3.1S74.3,8,83.1,16.9S96.9,37.5,96.9,50S92,74.3,83.1,83.1z M50,0C22.4,0,0,22.4,0,50s22.4,50,50,50s50-22.4,50-50
			S77.6,0,50,0z"/>
	</g>
	<g>
		<g>
			<path class="st0" d="M39.2,63.7c0.3,0,0.6-0.3,0.6-0.6v0l0.5-6.6l-0.5-14.4c0-0.4-0.3-0.6-0.6-0.6c-0.4,0-0.6,0.3-0.6,0.6
				l-0.4,14.4l0.4,6.6C38.6,63.5,38.9,63.7,39.2,63.7z"/>
		</g>
		<g>
			<path class="st0" d="M44.5,63.7c0.4,0,0.7-0.3,0.8-0.7v0l0.4-6.5l-0.4-13.5c0-0.4-0.3-0.7-0.8-0.7c-0.4,0-0.7,0.3-0.8,0.7
				l-0.3,13.5l0.3,6.5C43.8,63.4,44.1,63.7,44.5,63.7z"/>
		</g>
		<g>
			<path class="st0" d="M52.3,63.8c0,0,21.5,0,21.6,0c4.3,0,7.8-3.5,7.8-7.8c0-4.3-3.5-7.8-7.8-7.8c-1.1,0-2.1,0.2-3,0.6
				c-0.6-7-6.5-12.6-13.7-12.6c-1.8,0-3.5,0.3-5,0.9c-0.6,0.2-0.7,0.5-0.8,0.9v24.8C51.5,63.3,51.8,63.7,52.3,63.8z"/>
		</g>
		<g>
			<path class="st0" d="M36.6,63.7c0.3,0,0.6-0.3,0.6-0.6l0.5-6.7l-0.5-14c0-0.3-0.3-0.6-0.6-0.6c-0.3,0-0.6,0.3-0.6,0.6
				c0,0-0.4,14-0.4,14l0.4,6.7C36,63.5,36.3,63.7,36.6,63.7z"/>
		</g>
		<g>
			<path class="st0" d="M49.8,63.7c0.5,0,0.9-0.4,0.9-0.9v0l0.4-6.4l-0.4-17.6c0-0.5-0.4-0.9-0.9-0.9c-0.5,0-0.9,0.4-0.9,0.9
				l-0.4,17.6l0.4,6.4C49,63.3,49.4,63.7,49.8,63.7z"/>
		</g>
		<g>
			<path class="st0" d="M47.2,63.8c0.4,0,0.8-0.4,0.8-0.8l0.3-6.5L48,40.4c0-0.4-0.4-0.8-0.8-0.8c-0.4,0-0.8,0.4-0.8,0.8l-0.3,16.1
				c0,0,0.3,6.5,0.3,6.5C46.4,63.4,46.7,63.8,47.2,63.8z"/>
		</g>
		<g>
			<path class="st0" d="M41.9,63.7c0.4,0,0.7-0.3,0.7-0.7v0l0.4-6.6l-0.4-14.1c0-0.4-0.3-0.7-0.7-0.7c-0.4,0-0.7,0.3-0.7,0.7
				l-0.4,14.1l0.4,6.6C41.2,63.4,41.5,63.7,41.9,63.7z"/>
		</g>
		<g>
			<path class="st0" d="M21.3,62.3c0.1,0,0.2-0.1,0.3-0.3l0.7-5.6l-0.7-5.7c0-0.2-0.1-0.3-0.3-0.3c-0.1,0-0.2,0.1-0.3,0.3
				c0,0-0.6,5.7-0.6,5.7l0.6,5.6C21.1,62.2,21.2,62.3,21.3,62.3z"/>
		</g>
		<g>
			<path class="st0" d="M19,60.2c0.1,0,0.2-0.1,0.3-0.2l0.6-3.5L19.2,53c0-0.1-0.1-0.2-0.3-0.2c-0.1,0-0.2,0.1-0.3,0.2l-0.5,3.5
				l0.5,3.5C18.8,60.1,18.9,60.2,19,60.2z"/>
		</g>
		<g>
			<path class="st0" d="M23.8,63.3c0.2,0,0.3-0.1,0.3-0.3l0.7-6.5l-0.7-6.8c0-0.2-0.2-0.3-0.3-0.3c-0.2,0-0.3,0.1-0.3,0.3
				c0,0-0.6,6.8-0.6,6.8l0.6,6.5C23.5,63.2,23.7,63.3,23.8,63.3z"/>
		</g>
		<g>
			<path class="st0" d="M26.3,63.6c0.2,0,0.4-0.2,0.4-0.4l0.6-6.7l-0.6-6.9c0-0.2-0.2-0.4-0.4-0.4c-0.2,0-0.4,0.2-0.4,0.4l-0.6,6.9
				l0.6,6.7C26,63.4,26.1,63.6,26.3,63.6z"/>
		</g>
		<g>
			<path class="st0" d="M31.4,63.7c0.3,0,0.5-0.2,0.5-0.5v0l0.6-6.8L31.9,46c0-0.3-0.2-0.5-0.5-0.5c-0.3,0-0.5,0.2-0.5,0.5
				l-0.5,10.5l0.5,6.8C31,63.5,31.2,63.7,31.4,63.7z"/>
		</g>
		<g>
			<path class="st0" d="M28.9,63.7c0.2,0,0.4-0.2,0.4-0.4l0.6-6.8L29.3,50c0-0.2-0.2-0.4-0.4-0.4c-0.2,0-0.4,0.2-0.4,0.4l-0.5,6.4
				l0.5,6.8C28.5,63.5,28.6,63.7,28.9,63.7z"/>
		</g>
		<g>
			<path class="st0" d="M34,63.7c0.3,0,0.5-0.2,0.5-0.5l0.5-6.7l-0.5-12.9c0-0.3-0.2-0.5-0.5-0.5c-0.3,0-0.5,0.2-0.5,0.5
				c0,0-0.5,12.9-0.5,12.9l0.5,6.7C33.5,63.5,33.7,63.7,34,63.7z"/>
		</g>
	</g>
</g>
</svg>
