<?xml version="1.0" encoding="utf-8"?>
<!-- Generator: Adobe Illustrator 23.0.4, SVG Export Plug-In . SVG Version: 6.00 Build 0)  -->
<svg version="1.1" id="Layer_1" xmlns="http://www.w3.org/2000/svg" xmlns:xlink="http://www.w3.org/1999/xlink" x="0px" y="0px"
	 viewBox="0 0 1680 150" style="enable-background:new 0 0 1680 150;" xml:space="preserve">
<style type="text/css">
	.st0{fill:#F4F7DC;}
</style>
<g>
	<path class="st0" d="M72.1,29.8H2.7V2.2h172.5v27.6h-69.1v119.7h-34V29.8z"/>
	<path class="st0" d="M202.7,2.2h124.8c25.8,0,37.6,3.1,45.5,11.7c6.4,7.1,9.5,18.6,9.5,35.3c0,16.1-2,25.2-6.4,30.7
		c-4.4,5.5-9.7,8.2-18.6,9.7c18.6,1.5,22.8,7.3,22.5,30.7v29.2h-34.2v-22.1c-0.4-20.1-5.1-24.1-27.4-23.9h-82v45.9h-33.8V2.2z
		 M317.3,76.4c24.7,0,30.9-4.4,30.9-22.1c0-20.3-5.1-24.5-30.3-24.5h-81.5v46.6H317.3z"/>
	<path class="st0" d="M460.3,120.4l-16.3,29.2h-38.2L490.1,2.2h46.2l83.1,147.3h-37.1l-16.8-29.2H460.3z M512.8,26l-39.5,70.5h79.5
		L512.8,26z"/>
	<path class="st0" d="M817.7,96.5v2.4c0,21-2.2,31.4-8.4,38c-10.2,11.3-24.1,13.9-72,13.9c-58.8,0-69.6-1.1-82.6-8.2
		c-8.4-4.6-13.9-12.6-16.8-23.9c-2-7.5-3.1-24.7-3.1-45.5c0-41.1,4.2-55,19.7-63.6c12.6-7.1,27.8-8.8,74.4-8.8
		c51,0,68,2.9,77.3,13.3c6.4,6.8,9.7,19.7,9.7,37.6h-32.5c0-21.4-4.4-23.4-53-23.4c-34.5,0-44.4,0.9-51.5,4.6
		c-8.4,4.4-10.2,12.6-10.2,44.4c0,42.9,3.5,46.2,49.5,46.2l45.1-0.9c15.9-1.5,21.4-7.5,21.4-22.8v-3.3H817.7z"/>
	<path class="st0" d="M851.5,2.2h34v58.8h24.7l75.1-58.8h48.8l-93.7,72.5l101,74.9h-51l-80.9-61.4h-24.1v61.4h-34V2.2z"/>
	<path class="st0" d="M1066.5,2.2h34v119.7h107.6v27.6h-141.6V2.2z"/>
	<path class="st0" d="M1232.1,2.2h34v147.3h-34V2.2z"/>
	<path class="st0" d="M1335.5,102.9v1.5c0,9.5,1.8,14.6,6,17c5.3,3.1,16.8,4.4,38.4,4.4c18.3,0,29.8-0.7,45.7-2.7
		c8.4-1.1,12.6-2.7,15.2-5.7c2.9-3.5,4.4-8,4.4-12.6c0-8.6-3.8-12.8-13.9-15c-6.2-1.3-6.4-1.3-46.6-1.5h-21.2
		c-31.1-0.2-43.3-2.7-51.5-10.2c-7.1-6.2-10.4-15.5-10.4-28.5c0-16.3,4-29.8,11-36c9.9-9.3,32.5-12.8,81.1-12.8
		c29.6,0,45.5,1.1,55.7,4.2c18.3,5.3,24.7,15.2,24.7,38v2.9h-33.1c-0.2-8.6-2.4-13-7.1-15.2c-6.2-2.9-20.3-4.6-36.7-4.6
		c-27.8,0-47.3,1.8-53.9,5.1c-5.3,2.4-8,7.5-8,14.4c0,6.4,2,10.6,6.2,13c5.1,2.9,13.5,3.8,36.7,3.8h25c44.2,0,57.7,2.4,66.9,12.4
		c6.2,6.4,9.1,16.1,9.1,30.7c0,15.5-3.3,26.1-10.6,33.1c-9.7,9.3-28.7,12.4-78.4,12.4c-53,0-69.6-2.4-78.9-11.3
		c-6.6-6.4-9.5-15.2-9.5-29.2c0-1.3,0-4.6,0.2-7.5H1335.5z"/>
	<path class="st0" d="M1570.6,29.8h-69.4V2.2h172.5v27.6h-69.1v119.7h-34V29.8z"/>
</g>
</svg>
