<?xml version="1.0" encoding="utf-8"?>
<!-- Generator: Adobe Illustrator 23.0.4, SVG Export Plug-In . SVG Version: 6.00 Build 0)  -->
<svg version="1.1" id="Layer_1" xmlns="http://www.w3.org/2000/svg" xmlns:xlink="http://www.w3.org/1999/xlink" x="0px" y="0px"
	 viewBox="0 0 1100 150" style="enable-background:new 0 0 1100 150;" xml:space="preserve">
<style type="text/css">
	.st0{fill:#F4F7DC;}
</style>
<g>
	<path class="st0" d="M42,1.3l50.1,119.7L139.9,1.3h40.6l47.1,119.7l51-119.7h34.9L249,148.7h-44.8L160,32.9l-45.1,115.8H70.3
		L6.9,1.3H42z"/>
	<path class="st0" d="M353.2,119.5l-16.3,29.2h-38.2L383,1.3h46.2l83.1,147.3h-37.1l-16.8-29.2H353.2z M405.8,25.2l-39.5,70.5h79.5
		L405.8,25.2z"/>
	<path class="st0" d="M564.9,28.9h-69.4V1.3h172.5v27.6H599v119.7h-34V28.9z"/>
	<path class="st0" d="M875,95.7v2.4c0,21-2.2,31.4-8.4,38c-10.2,11.3-24.1,13.9-72,13.9c-58.8,0-69.6-1.1-82.6-8.2
		c-8.4-4.6-13.9-12.6-16.8-23.9c-2-7.5-3.1-24.7-3.1-45.5c0-41.1,4.2-55,19.7-63.6C724.3,1.8,739.6,0,786.2,0c51,0,68,2.9,77.3,13.3
		c6.4,6.9,9.7,19.7,9.7,37.6h-32.5c0-21.4-4.4-23.4-53-23.4c-34.5,0-44.4,0.9-51.5,4.6c-8.4,4.4-10.2,12.6-10.2,44.4
		c0,42.9,3.5,46.2,49.5,46.2l45.1-0.9c15.9-1.5,21.4-7.5,21.4-22.8v-3.3H875z"/>
	<path class="st0" d="M908.9,1.3h34v58.5h116.2V1.3h34v147.3h-34V87.3H942.9v61.4h-34V1.3z"/>
</g>
</svg>
