<?xml version="1.0" encoding="utf-8"?>
<!-- Generator: Adobe Illustrator 23.0.4, SVG Export Plug-In . SVG Version: 6.00 Build 0)  -->
<svg version="1.1" id="Layer_1" xmlns="http://www.w3.org/2000/svg" xmlns:xlink="http://www.w3.org/1999/xlink" x="0px" y="0px"
	 viewBox="0 0 100 100" style="enable-background:new 0 0 100 100;" xml:space="preserve">
<style type="text/css">
	.st0{fill-rule:evenodd;clip-rule:evenodd;fill:#F2F7D8;}
	.st1{fill:#F2F7D8;}
</style>
<g>
	<g>
		<g>
			<path class="st0" d="M45.3,40.4l14.5,8.3l-14.5,8.3V40.4z M75.2,62.4c-0.6,2.8-2.9,4.8-5.6,5.1c-6.5,0.7-13,0.7-19.6,0.7
				c-6.5,0-13.1,0-19.6-0.7c-2.7-0.3-5-2.4-5.6-5.1c-0.9-4-0.9-8.3-0.9-12.4c0-4.1,0-8.4,0.9-12.4c0.6-2.8,2.9-4.8,5.6-5.1
				c6.5-0.7,13-0.7,19.6-0.7c6.5,0,13.1,0,19.6,0.7c2.7,0.3,5,2.4,5.6,5.1c0.9,4,0.9,8.3,0.9,12.4C76.1,54.1,76.1,58.4,75.2,62.4z"
				/>
		</g>
	</g>
	<g>
		<path class="st1" d="M83.1,83.1C74.3,92,62.5,96.9,50,96.9S25.7,92,16.9,83.1C8,74.3,3.1,62.5,3.1,50S8,25.7,16.9,16.9
			S37.5,3.1,50,3.1S74.3,8,83.1,16.9S96.9,37.5,96.9,50S92,74.3,83.1,83.1z M50,0C22.4,0,0,22.4,0,50s22.4,50,50,50s50-22.4,50-50
			S77.6,0,50,0z"/>
	</g>
</g>
</svg>
